<svg version="1.1" class="clearos-svg clearfoundation app-vendor-clearfoundation app-free app-category-server app-sub-category-web" viewBox="0 0 400 400" preserveAspectRatio="xMinYMin" xmlns="http://www.w3.org/2000/svg" xmlns:xlink= "http://www.w3.org/1999/xlink">
<path fill="#AA0707" d="M91.666,184.647"/>
<path fill="#AA0707" d="M123.245,247.805"/>
<path fill="#AA0707" d="M91.666,184.647"/>
<path fill="#AA0707" d="M123.245,247.805"/>
<g>
	<path fill="#686868" d="M187.476,39.041H34.432c-17.472,0-31.661,14.189-31.661,31.662v160.958
		c0,17.473,14.189,31.662,31.661,31.662h153.044c17.488,0,31.67-14.189,31.67-31.662V70.703
		C219.147,53.23,204.964,39.041,187.476,39.041z M196.701,239.585H25.222V68.067h171.495v171.518H196.701z"/>
	<path fill="#686868" d="M219.147,345.128c0,8.776-7.071,15.831-15.832,15.831H18.608c-8.744,0-15.822-7.087-15.822-15.831v-47.492
		c0-8.76,7.095-15.829,15.822-15.829h184.707c8.76,0,15.83,7.069,15.83,15.829L219.147,345.128L219.147,345.128z"/>
	<path fill="#686868" d="M381.398,74.664H260.008c-8.743,0-15.829,7.095-15.829,15.823v249.338c0,8.743,7.086,15.831,15.829,15.831
		h121.392c8.773,0,15.83-7.088,15.83-15.831V90.503C397.245,81.774,390.174,74.664,381.398,74.664z M380.072,321.374
		c0,8.76-7.056,15.831-15.814,15.831h-87.062c-8.775,0-15.83-7.087-15.83-15.831V110.287c0-8.744,7.055-15.823,15.83-15.823h87.062
		c8.775,0,15.814,7.079,15.814,15.823V321.374L380.072,321.374z"/>
	<rect x="281.144" y="103.69" fill="#686868" width="79.139" height="47.484"/>
	<rect x="285.088" y="227.7" fill="#686868" width="79.154" height="19.792"/>
	<rect x="285.088" y="259.361" fill="#686868" width="79.154" height="19.791"/>
	<rect x="285.088" y="291.021" fill="#686868" width="79.154" height="19.793"/>
</g>
</svg>
